<svg xmlns="http://www.w3.org/2000/svg" viewBox="0 0 50 50"><defs><style>.cls-1{opacity:0;}.cls-2{fill:#fff;}</style></defs><title>Asset 4</title><g id="Layer_2" data-name="Layer 2"><g id="Layer_1-2" data-name="Layer 1"><rect class="cls-1" width="50" height="50"/><path class="cls-2" d="M30.54,38.9V6.07a5.6,5.6,0,1,0-11.21,0V38.92a5.64,5.64,0,0,0-1.39,3.68c0,3.41,3.13,6.18,7,6.18s7-2.77,7-6.18A5.69,5.69,0,0,0,30.54,38.9ZM21.33,6.07a3.6,3.6,0,1,1,7.21,0V21.75a3.23,3.23,0,0,0-.35-.4,4.6,4.6,0,0,0-6.86.39Z"/></g></g></svg>